<svg xmlns="http://www.w3.org/2000/svg" viewBox="0 0 2500 855" xmlns:v="https://vecta.io/nano"><path d="M983.7 449.1c83.7-18 72.3-118.2 69.9-140-4.1-33.8-43.8-92.7-97.7-88-67.8 6-77.7 104-77.7 104-9.2 45.2 21.9 142 105.5 124m155.5-167.9c46.2 0 83.6-53.3 83.6-119s-37.4-119-83.6-119-83.7 53.2-83.7 119c0 65.7 37.4 119 83.7 119m199.2 7.8c61.9 8.1 101.5-57.9 109.4-107.9 8.1-49.9-31.9-108-75.6-118-43.9-10.1-98.7 60.2-103.6 106-5.9 56.1 8 112 69.8 119.9m245 84c0-23.9-19.8-96-93.6-96-73.9 0-83.6 68-83.6 116.1 0 45.9 3.8 109.9 95.6 107.9 91.7-2 81.6-103.9 81.6-128m-93.5 210s-95.6-74-151.5-154c-75.8-117.9-183.3-69.9-219.3-10-35.8 60-91.6 98-99.5 108-8 9.9-115.5 67.9-91.7 174 23.9 105.9 107.7 103.9 107.7 103.9s61.8 6 133.4-10c71.8-16 133.5 3.9 133.5 3.9S1470 855 1515.7 747c45.8-108-25.8-164-25.8-164" fill="#2319dc"/><path d="M1154.1 479.8V551h-58s-58 4.8-78.2 70.5c-7.1 43.9 6.2 69.7 8.6 75.2 2.3 5.5 21.1 37.6 68.1 47h108.8V480.6l-49.3-.8zm-.9 220.7h-43.8s-30.5-1.6-39.8-36.8c-4.8-15.6.7-33.6 3.1-40.7 2.2-7.1 12.5-23.5 33.6-29.8h46.9v107.3zm76.8-143.1v138.5s2.3 34.5 50.9 47h125.2V557.4h-54v139.3h-51.6s-16.5-2.4-19.6-15.6V556.6l-50.9.8z" fill="#fff"/><path d="M2002.8 466.4V408H1618l-.5 59.3h165.4l-15.5 35.4h-140.7v293.1h334.1c34.9 0 31.8-35.3 31.8-35.3V502.8h-140.9l12.4-36.3 138.7-.1h0 0zM1928 733.2s-4.1 9.7-9.8 9.7h-221.7v-68.4H1928v58.7zm-.3-115h-231.1v-64.1h231.1v64.1zm514.7-208.6h-150.9V380h-70.8v28.1h-173.1v387.1h62.3V458.1h332.6l-.1-48.5zm-40.8 80.1v-22.4h-60.8v22.4h-125.2v-21.6H2158v21.6h-39l.8 43.9h38.2v82.3h210.6c29.2 0 33.1-30.8 33.1-30.8v-51.5h44.6v-43.9h-44.7 0zm-60.8 73.8s-5.4 10-12.4 10h-113.5v-40.8h125.8l.1 30.8h0 0zm-213.3 112.4l96.9 56.2c-7.7 8.4-40.8 19.2-40.8 19.2H2119v43.2h87.7c26.2-5.4 74.6-30 74.6-30 20.1 18.4 58.6 26.1 58.6 26.1h100v-43.1h-75.4c-20.3-3-38.6-14.6-38.6-14.6l114-65.4V632h-312.5l.1 43.9h0zm201.7-.7l-55.4 29.2-50.8-29.2h106.2zM762 471.2h84v-74h-84v74zm0 322.4h84V503.5h-84v290.1zM625.5 503.7l-179.1-.5v61h157.1s37.4 9.2 37.4 32.9v21.5H498.7s-55.9 5.2-73.9 71.9c-3.1 31.3 1 46.6 3.1 52.4 2 5.7 18.4 42.5 67.2 51.8h226.4V586.8s-10.8-71.3-96-83.1m15.3 233.6H526.4c-15.4-6.2-20.5-16.4-21.6-19-1.1-2.5-4.6-11.7-.5-21 9.3-17.9 24.6-22 24.6-22h111.9v62zm-234.5-45.4c2.5-70.7-60.9-95.1-60.9-95.1 53.7-28.1 46.9-98.8 46.9-98.8-5.8-108.2-138.1-103.2-138.1-103.2H49.8v403.5h230.8c135.5-.6 125.7-106.4 125.7-106.4m-130.4 31.3v.2H137.7v-87.1h137.6l4.6.9s26.2 4.8 35.7 28.3c0 0 5.5 22.1-6.4 38.6 0 .1-8.7 15.3-33.3 19.1m29.3-187s-9.3 17.1-33.9 20.8H137.7v-83.5h133s28.9-1.3 38.5 21.6c0 0 5.8 24.4-4 41.1" fill="#e10601"/></svg>