<svg xmlns="http://www.w3.org/2000/svg" viewBox="0 0 50 50" xmlns:v="https://vecta.io/nano"><path d="M26.3 48.7c-12.7.2-23.9-9.6-24-23.5C2.2 12.6 12 2 25.2 1.7c13-.3 23.6 9.7 24 22.6.5 13.2-9.7 24-22.9 24.4zm10.2-22.6h-9.9v9.5h.4 7.7c.4 0 .6-.2.6-.5.3-2.1.7-4.1 1-6.2.2-1 .2-1.9.2-2.8zm0-1.9v-.3c-.1-2.9-.5-5.9-1.2-8.7-.1-.4-.2-.5-.6-.5H27h-.4v9.5h9.9zm-21.6 1.9c.1 3.1.4 6.1 1.2 9.1.1.4.2.5.6.5h7.6.5v-9.5c-3.3-.1-6.6-.1-9.9-.1zm9.9-11.4h-.4-7.6c-.4 0-.5.1-.6.5-.6 2.2-.9 4.5-1.1 6.8-.1.7-.1 1.5-.1 2.3h9.9c-.1-3.2-.1-6.4-.1-9.6zM38.3 26c-.1 3.2-.5 6.4-1.3 9.5h.4 7.2c.3 0 .4-.2.5-.4 1.2-2.3 2-4.8 2.3-7.4.1-.6.1-1.1.1-1.7h-9.2zM37 14.8c.8 3.1 1.2 6.3 1.3 9.5h9.2v-.4c-.2-3.1-1-6-2.5-8.8-.1-.3-.3-.3-.6-.3h-7c-.1-.1-.2-.1-.4 0zM4 26v.3c.2 3.1.9 6 2.4 8.8.2.3.3.5.7.5h6.8.5c-.8-3.1-1.2-6.3-1.3-9.5-3-.1-6-.1-9.1-.1zm9.2-1.8c.1-3.2.5-6.4 1.3-9.5h-.2-7.2c-.3 0-.4.1-.5.4-1.1 2.2-1.9 4.5-2.2 6.9-.1.7-.2 1.5-.2 2.3 2.9-.1 5.9-.1 9-.1zm21.4 13.2h-8v9.5c.9-.1 1.6-.4 2.3-.9 1.3-.9 2.4-2 3.2-3.3 1.1-1.7 1.9-3.4 2.5-5.3zm-17.8-.1v.2c.7 1.9 1.5 3.7 2.6 5.3.9 1.4 2 2.5 3.5 3.3.5.3 1.1.5 1.8.7v-9.6c-2.6.1-5.2.1-7.9.1zm9.8-33.8v9.4h8c-.4-.9-.7-1.7-1-2.5-1-2.2-2.3-4.3-4.3-5.7-.8-.6-1.6-1-2.7-1.2zm-1.8 9.4V3.5c-.2 0-.4.1-.6.1-1.2.4-2.2 1.1-3.1 2-1.7 1.6-2.8 3.6-3.6 5.7-.2.5-.4 1.1-.7 1.7 2.7-.1 5.3-.1 8-.1zm19 24.5h-7.3c-1.1 3.2-2.5 6.3-4.9 8.8 5.1-1.5 9.1-4.4 12.2-8.8zm-23.9 8.7l-1.5-1.8c-1.5-2-2.5-4.2-3.3-6.5-.1-.3-.1-.5-.5-.5H8.1h-.3c2.3 3.8 7.1 7.6 12.1 8.8zM31.6 4.3c.4.4.7.8 1.1 1.2 1.7 2.1 2.8 4.5 3.7 7.1.1.3.3.4.6.4h6.4.5c-3.2-4.4-7.2-7.3-12.3-8.7zm-11.8 0c-5 1.4-9 4.3-12.1 8.7h7c.1 0 .3-.2.3-.3 1.1-3.1 2.5-6 4.8-8.4z"/></svg>