<svg xmlns="http://www.w3.org/2000/svg" viewBox="0 0 32 32" xmlns:v="https://vecta.io/nano"><path d="M17.5 31.9h-3.2c-.3 0-.5-.2-.5-.4l-.5-3c-.9-.2-1.7-.5-2.6-.8l-2.2 2.2c-.2.2-.5.2-.7.1l-2.6-1.9c-.2-.2-.3-.4-.2-.7l1.4-2.7c-.6-.7-1.2-1.4-1.6-2.2l-3 .5c-.3 0-.5-.1-.6-.4l-1-3c-.1-.2 0-.5.3-.6l2.7-1.4c-.1-.5-.1-.9-.1-1.4s0-.9.1-1.4L.5 13.4c-.2-.1-.3-.4-.3-.6l1-3c.1-.2.3-.4.6-.4l3 .5c.2-.6.4-.9.6-1.2.2-.2.5-.3.7-.1s.3.5.1.7c-.1.4-.4.7-.6 1.1a.55.55 0 0 1-.5.3l-2.9-.4-.7 2.2 2.7 1.4a.55.55 0 0 1 .3.5c-.1.6-.1 1.1-.1 1.6s0 1 .1 1.6a.55.55 0 0 1-.3.5l-2.7 1.4.7 2.2 2.9-.4a.55.55 0 0 1 .5.3c.5.9 1.1 1.8 1.9 2.6a.47.47 0 0 1 .1.6l-1.3 2.7 1.8 1.3 2.1-2.1a.47.47 0 0 1 .6-.1c1 .5 2 .8 3 1 .2 0 .4.2.4.4l.5 2.9H17l.5-2.9c0-.2.2-.4.4-.4 1-.2 2.1-.5 3-1a.47.47 0 0 1 .6.1l2.1 2.1 1.8-1.3-1.3-2.7a.47.47 0 0 1 .1-.6c.7-.8 1.4-1.6 1.9-2.6a.55.55 0 0 1 .5-.3l2.9.4.7-2.2-2.7-1.4a.55.55 0 0 1-.3-.5c.1-.6.1-1.1.1-1.6s0-1-.1-1.6a.55.55 0 0 1 .3-.5l2.7-1.4-.7-2.2-2.9.4a.55.55 0 0 1-.5-.3c-.5-.9-1.1-1.8-1.9-2.6a.47.47 0 0 1-.1-.6l1.3-2.7-1.9-1.3-2.1 2.1a.47.47 0 0 1-.6.1c-1-.5-2-.8-3-1-.2 0-.4-.2-.4-.4l-.5-2.9h-2.3L14.3 4c0 .2-.2.4-.4.4-1 .2-2.1.5-3 1a.47.47 0 0 1-.6-.1L8.1 3.2 6.3 4.6l1.3 2.7c.1.3 0 .6-.2.7-.3.1-.6 0-.8-.3L5.1 4.6c-.1-.2 0-.5.2-.6l2.6-1.9c.2-.1.5-.1.6.1l2.2 2.2c.8-.4 1.7-.7 2.6-.8l.5-3c0-.3.3-.4.5-.4h3.2c.3-.2.5 0 .5.2l.5 3c.9.2 1.7.5 2.6.8L23.3 2c.2 0 .5 0 .7.1L26.6 4c.2.2.3.4.2.7l-1.4 2.7c.6.7 1.1 1.4 1.6 2.2l3-.5c.3 0 .5.1.6.4l1 3c.1.2 0 .5-.3.6l-2.7 1.4c.1.5.1.9.1 1.4 0 .4 0 .9-.1 1.4l2.7 1.4c.2.1.3.4.3.6l-1 3c-.1.2-.3.4-.6.4l-3-.5c-.5.8-1 1.5-1.6 2.2l1.4 2.7c.1.2 0 .5-.2.7L24 29.7c-.2.2-.5.1-.7-.1l-2.2-2.2c-.8.4-1.7.7-2.6.8l-.5 3c0 .5-.2.7-.5.7zm-1.6-11.7a4.23 4.23 0 0 1-4.2-4.2 4.23 4.23 0 0 1 4.2-4.2 4.23 4.23 0 0 1 4.2 4.2 4.16 4.16 0 0 1-4.2 4.2zm0-7.5c-1.8 0-3.2 1.4-3.2 3.2s1.4 3.2 3.2 3.2 3.2-1.4 3.2-3.2-1.4-3.2-3.2-3.2zm0 11.7c-4.7 0-8.5-3.8-8.5-8.5s3.8-8.5 8.5-8.5 8.5 3.8 8.5 8.5c0 1.9-.6 3.7-1.8 5.2-.2.2-.5.3-.7.1s-.3-.5-.1-.7c1-1.3 1.5-2.9 1.5-4.5 0-4.1-3.3-7.4-7.4-7.4S8.5 11.9 8.5 16s3.3 7.4 7.4 7.4c.9 0 1.7-.2 2.6-.5.3-.1.6 0 .7.3s0 .6-.3.7c-1 .3-2 .5-3 .5z"/><circle cx="20.7" cy="22.3" r=".5"/></svg>