<svg xmlns="http://www.w3.org/2000/svg" viewBox="0 0 272 92" xmlns:v="https://vecta.io/nano"><path d="M115.8 47.2c0 12.8-10 22.2-22.3 22.2S71.3 60 71.3 47.2c0-12.9 10-22.2 22.3-22.2s22.2 9.3 22.2 22.2zm-9.8 0c0-8-5.8-13.4-12.5-13.4S81 39.2 81 47.2c0 7.9 5.8 13.4 12.5 13.4S106 55.1 106 47.2z" fill="#ea4335"/><path d="M163.8 47.2c0 12.8-10 22.2-22.3 22.2s-22.3-9.4-22.3-22.2 10-22.2 22.3-22.2 22.3 9.3 22.3 22.2zm-9.8 0c0-8-5.8-13.4-12.5-13.4S129 39.2 129 47.2c0 7.9 5.8 13.4 12.5 13.4S154 55.1 154 47.2z" fill="#fbbc05"/><path d="M209.8 26.3v39.8c0 16.4-9.7 23.1-21.1 23.1-10.8 0-17.2-7.2-19.7-13.1l8.5-3.5c1.5 3.6 5.2 7.9 11.2 7.9 7.3 0 11.8-4.5 11.8-13v-3.2h-.3c-2.2 2.7-6.4 5-11.7 5-11.1 0-21.3-9.7-21.3-22.1 0-12.5 10.2-22.3 21.3-22.3 5.3 0 9.5 2.4 11.7 5h.3v-3.6h9.3 0zm-8.6 21c0-7.8-5.2-13.5-11.8-13.5-6.7 0-12.4 5.7-12.4 13.5 0 7.7 5.6 13.4 12.4 13.4 6.6-.1 11.8-5.7 11.8-13.4z" fill="#4285f4"/><path d="M225,3v65h-9.5V3H225z" fill="#34a853"/><path d="M262 54.5l7.6 5c-2.4 3.6-8.3 9.8-18.5 9.8-12.6 0-22-9.7-22-22.2C229.1 34 238.6 25 250 25c11.5 0 17.1 9.2 19 14.1l1 2.5-29.6 12.3c2.3 4.5 5.8 6.7 10.8 6.7 4.9 0 8.3-2.4 10.8-6.1h0zm-23.3-8l19.8-8.2c-1.1-2.8-4.4-4.7-8.2-4.7-4.9 0-11.8 4.3-11.6 12.9z" fill="#ea4335"/><path d="M35.3 41.4V32H67c.3 1.6.5 3.6.5 5.7 0 7.1-1.9 15.8-8.2 22-6 6.3-13.8 9.7-24 9.7C16.3 69.4.4 53.9.4 35S16.4.6 35.3.6c10.5 0 18 4.1 23.6 9.5l-6.6 6.6c-4-3.8-9.5-6.7-17-6.7-13.9 0-24.7 11.2-24.7 25s10.8 25 24.7 25c9 0 14.1-3.6 17.4-6.9 2.7-2.7 4.4-6.5 5.1-11.7H35.3z" fill="#4285f4"/></svg>