<svg xmlns="http://www.w3.org/2000/svg" viewBox="0 0 50 50" xmlns:v="https://vecta.io/nano"><path d="M28.9 36.7c-.8 2.2-2.7 2.8-4.7 3.2-1 .2-2 .2-3 .3-1.1.1-1.9-.5-2.3-1.5-.7-1.9-.7-3.8 0-5.7 0-.1.1-.2.1-.3v-.1h-.6c-3.9 0-7.8 0-11.7-.1-1.4 0-2.8-.2-4.2-.6C.5 31.4-.3 30 0 28c.1-.5.1-.9.2-1.4.3-1.8 1.3-3.1 2.8-4 1.6-1 3.5-1.5 5.3-1.8 2.5-.5 4.9-.3 7.4-.3h1.1c0-1-.1-2 0-2.9 0-.5.3-.9.5-1.3.3-.5.8-.8 1.5-.8.5 0 1.1 0 1.6.1.3 0 .5-.1.6-.3.4-.8.9-1.5 1.4-2.3a1 1 0 0 1 1-.6h4.4c.8 0 1.1.3 1 1.1-.1 2-.3 4-.4 6 0 .3 0 .6-.1 1h.5 4.6c.3 0 .5-.1.8-.4l6.4-7.8c.3-.4.7-.6 1.2-.6h5.8c.9 0 1.3.5 1 1.4l-3.8 11.4c-.2.4-.1.7.3.9l4.5 3.6c.3.3.7.5.6 1s-.5.6-.9.7c-.9.2-1.7.5-2.6.7-.3.1-.7 0-.9-.1l-2.9-1.4c-.1-.1-.4 0-.5 0-1.5 1.6-3.4 2.2-5.4 2.5-.1 0-.2 0-.3.1l-.1.1c.1.1.2.1.3.2l4.4 3.6c.3.3.6.5.5 1-.1.4-.4.6-.8.7-1.7.4-3.4.9-5.1 1.3-.4.1-.8 0-1.1-.1-1.7-.8-3.4-1.7-5-2.5-.6 0-.7 0-.9-.1zM4.7 23.8c.2 0 .3.1.5.1 1 0 2.1.1 3.2.1.7.1 1 .3 1.1 1v1.1c-.1 1.3-1.4 2.3-2.7 2.2-.4-.1-.9-.1-1.3-.1l-3.7-.3c-.4 1.3.1 2.3 1.5 2.5 1.7.3 3.5.5 5.3.5 3.8.1 7.5.1 11.3 0 1.1 0 2 .3 3 .8.4.2.6.5.5 1-.1.4-.5.6-1 .6-.4 0-.8-.1-1.2-.1-.2 0-.6.2-.7.4-.6 1.5-.6 3 0 4.5.1.3.3.4.7.4 1-.1 2.1-.1 3.1-.4.8-.2 1.5-.5 2.2-.9.6-.3 1-.9.8-1.7-.1-.4-.1-.8.3-1.1s.7-.1 1.1.1c1.8.9 3.7 1.8 5.5 2.8.7.4 1.3.5 2.1.2s1.7-.5 2.7-.7l-.4-.4-4.9-4c-.4-.3-.6-.6-.4-1.1s.6-.5 1-.5h1.5c2.2 0 4.2-.6 5.7-2.5.4-.5.7-.5 1.3-.2.9.5 1.9.9 2.8 1.4.6.4 1.2.3 1.9 0-.2-.1-.3-.3-.4-.4l-3.7-3c-.6-.5-.7-.7-.4-1.4l2.6-7.9 1.2-3.5h-.6-3.9c-.4 0-.6.1-.8.4l-6.3 7.6c-.4.5-.9.7-1.6.7H12.7c-1.6 0-3.3.2-4.9.5-1.1.3-2.1.6-3.1 1.3zm21.9-3.3l.5-6.5h-3.2c-.1 0-.3.2-.4.3L22 16.7c-.3.5-.7.7-1.2.6-.6-.1-1.1-.1-1.7-.2-.4-.1-.6.1-.6.5 0 .8-.1 1.6-.1 2.4 0 .4.3.5.7.5H26h.6zM7.8 25.7c-.2 0-.3-.1-.4-.1l-4.2-.3c-.7 0-1 .2-1 1 1.5.1 3 .3 4.5.4.7.1 1-.2 1.1-1zm6.9-.1a1.47 1.47 0 0 1-1.5 1.5 1.54 1.54 0 0 1-1.5-1.5 1.47 1.47 0 0 1 1.5-1.5 1.47 1.47 0 0 1 1.5 1.5zm10-1.5a1.54 1.54 0 0 1 1.5 1.5 1.54 1.54 0 0 1-1.5 1.5 1.54 1.54 0 0 1-1.5-1.5c.1-.9.7-1.5 1.5-1.5zm7.2 1.5a1.54 1.54 0 0 1-1.5 1.5 1.54 1.54 0 0 1-1.5-1.5 1.54 1.54 0 0 1 1.5-1.5c.9 0 1.5.6 1.5 1.5zm-14.4 0a1.47 1.47 0 0 1 1.5-1.5 1.47 1.47 0 0 1 1.5 1.5 1.54 1.54 0 0 1-1.5 1.5 1.54 1.54 0 0 1-1.5-1.5z"/></svg>