<svg xmlns="http://www.w3.org/2000/svg" viewBox="0 0 50 50" xmlns:v="https://vecta.io/nano"><path d="M27.2 47.2h16.9v-.6-22.9-.8a.94.94 0 0 1 1-1c.5 0 1 .3 1.1.9v.5 24.5c0 1.1-.3 1.4-1.4 1.4H28.1 15.6 5.4c-1 0-1.4-.4-1.4-1.4V23.2c0-.7.2-1.1.7-1.3.7-.3 1.4.2 1.4 1.1v3 20.6.5h6.3v-.6-19c0-1.2.3-1.5 1.5-1.5h11.6c1.4 0 1.7.3 1.6 1.7v12.4 6.4c.1.3.1.5.1.7zm-12.7-19v18.9h4.1V28.2h-4.1zm10.5 19V28.3h-4.1v18.9H25zm14.4-30.5c-2.3 3.2-6.8 3.7-9.6.1-2.7 3.6-7.1 3.3-9.6 0-1.2 1.6-2.8 2.6-4.8 2.6s-3.6-1-4.8-2.6c-.2.2-.3.3-.4.5-3.4 3.9-8.5 1.9-9.9-1.6-.5-1.2-.3-2.4.5-3.4l4.8-6.1a1.69 1.69 0 0 0 .3-1V2.1c0-.9.4-1.3 1.3-1.3L42.7.7c.9 0 1.3.4 1.3 1.3v3.1c0 .3.1.6.3.8 1.6 2.1 3.3 4.1 4.9 6.2.8 1 1 2.2.5 3.4-1.3 3.4-6.4 5.6-9.9 1.8-.1-.2-.2-.4-.4-.6zm4.9.5c1.8 0 3.1-1.1 3.6-2.7.1-.4 0-.7-.2-1l-4.9-6.1c-.2-.3-.4-.4-.8-.4L8 7.1c-.3 0-.5.1-.8.4-1.5 2-3.2 4.1-4.8 6.2-.3.3-.4.7-.2 1.1.4 1.5 1.6 2.4 3.2 2.6 2.5.2 4.1-1.5 4.1-3.5 0-.2 0-.4.1-.6.2-.5.8-.8 1.3-.7.5.2.7.5.8 1.3.1 1.8 1.3 3.1 3.2 3.4s3.6-.7 4.1-2.4c.1-.3.1-.7.2-1.1.1-.8.5-1.3 1.1-1.2.6 0 1 .5 1 1.3 0 .5.1 1 .3 1.4.6 1.6 2.4 2.4 4.2 2 1.8-.3 2.9-1.6 2.9-3.4 0-.6.1-1.1.7-1.3.8-.3 1.4.3 1.4 1.2.1 1.7 1.3 3.1 3 3.4 1.9.3 3.6-.6 4.2-2.3.1-.4.2-.8.2-1.3.1-.7.5-1.2 1.1-1.2s1 .5 1 1.2c.2 1.9 1.6 3.6 4 3.6zM8.1 5l33.8-.1V2.8l-33.8.1V5zm27.6 21.2h3c.8 0 1.3.5 1.3 1.3v5.7c0 1-.4 1.4-1.4 1.4h-5.7c-.9 0-1.3-.4-1.3-1.3v-5.8c0-.9.4-1.3 1.3-1.3h2.8zm2 2h-3.9c-.1 0-.3.3-.3.4V31c0 .4-.1 1.1.1 1.3.3.2.9.1 1.3.1h2.7l.1-4.2z"/></svg>