<svg xmlns="http://www.w3.org/2000/svg" viewBox="0 0 30 30" xmlns:v="https://vecta.io/nano"><path d="M14.6 22.2c-3.5 0-6.2-2.7-6.2-6.2 0-3.4 2.8-6.2 6.2-6.2 3.5 0 6.2 2.8 6.2 6.2s-2.7 6.2-6.2 6.2zm.1-1.1c2.9 0 5.2-2.3 5.2-5.1 0-2.9-2.3-5.2-5.2-5.2s-5.2 2.3-5.2 5.1c0 2.9 2.3 5.2 5.2 5.2z" fill="#35bae6"/><path d="M25.9 23.2c.5-.1 1.1-.1 1.6-.2.1 0 .3-.1.4-.1a.47.47 0 0 1 .5.5.47.47 0 0 1-.5.5l-2.8.3c-.7.1-.8.1-1-.7-.3-.8-.5-1.7-.8-2.5-.1-.4 0-.7.3-.8s.5.1.7.4l.6 1.8s0 .1.1.1c.1-.1.1-.2.2-.2 1.4-2.3 2.1-4.9 1.7-7.6-.7-5.4-3.8-9-9-10.6-.3-.1-.5-.2-.5-.5 0-.2.1-.4.4-.5.1-.1.3 0 .4 0 5 1.5 8.1 4.7 9.4 9.7.9 3.5.3 6.9-1.6 10 0 .1 0 .2-.1.4 0-.1 0-.1 0 0zM14.3 2.7c-.5-.5-.9-.8-1.3-1.3-.2-.2-.3-.4-.2-.6.1-.4.5-.5.8-.2l2.5 2.5c-.1.1-.1.2-.1.2L14.3 6c-.2.4-.5.4-.8.3-.2-.2-.3-.5-.1-.8.4-.6.7-1.2 1.1-1.9-.5.1-1 .1-1.4.1-5.3.8-9.6 4.8-10.6 10.2-.3 1.7-.2 3.3.1 5 .1.4 0 .7-.4.7-.2 0-.5-.1-.6-.6C.1 12.1 4.2 5.2 10.9 3.2c.9-.2 1.9-.4 2.8-.5h.6zM3.1 22.6c-.2.6-.4 1.1-.5 1.7-.1.4-.4.5-.7.5-.4-.1-.5-.4-.4-.8l.9-3c.1-.2.2-.3.4-.3l3.2.2c.3 0 .5.3.5.5 0 .3-.2.5-.6.5-.6 0-1.1-.1-1.7-.1-.1 0-.3 0-.5-.1.2.2.3.3.4.5 2.1 3.3 5 5.4 9 5.9 3.6.5 6.8-.5 9.6-2.8l.2-.2c.2-.2.5-.2.7 0s.2.5-.1.7c-.7.5-1.3 1.1-2.1 1.5-6.2 3.7-14.2 1.7-18-4.4-.1 0-.1-.1-.3-.3z" fill="#191f2b"/><path d="M14.8 15.8h1.7.7a.47.47 0 0 1 .5.5c0 .3-.1.5-.4.5h-.2-2.7c-.4 0-.5-.2-.5-.6v-3.4c0-.4.2-.6.5-.6s.5.2.5.6v2.6c-.1.1-.1.2-.1.4z" fill="#35bae6"/></svg>