<svg xmlns="http://www.w3.org/2000/svg" xmlns:xlink="http://www.w3.org/1999/xlink" viewBox="0 0 200 80" xmlns:v="https://vecta.io/nano"><defs><path id="A" d="M-8.1-.6h222.6v81.1H-8.1z"/></defs><clipPath id="B"><use xlink:href="#A"/></clipPath><path d="M-15.7-22.8h233.3v154.7H-15.7z" clip-path="url(#B)" fill="#191f2b"/><defs><path id="C" d="M-8.1-.6h222.6v81.1H-8.1z"/></defs><clipPath id="D"><use xlink:href="#C"/></clipPath><g clip-path="url(#D)"><g fill="#1c222d"><path d="M217.6-22.8v73.6C203.1 38 196.4 17.6 158.8 5.9 107.1-10.3 73.6 3.6 40.9-22.8h176.7zm0 120v35.6H-15.7V30.9C3.6 42.3 15.8 60.9 54.5 79c4.2 1.9 8.1 3.5 12 4.9 1 .3 1.9.7 2.9 1 .5.2 1 .3 1.4.4.2.1.5.1.7.2s.5.1.7.2c.1 0 .1 0 .2.1h0c.4.1.8.2 1.1.3.1 0 .2.1.3.1.7.2 1.4.4 2.1.5.3.1.5.1.8.2.1 0 .2 0 .2.1h0 0c1 .2 2 .5 3.1.7.4.1.9.2 1.3.3.3.1.7.1 1 .2.4.1.9.2 1.3.2.2 0 .5.1.7.1l2 .3c.4.1.8.1 1.3.2h.1c43 4.5 71.5-21.4 129.9 8.2-.1-.1-.1 0 0 0z"/><path d="M92.2 131.9l-.6.9H-15.7V90.6c18.9 11.2 40.8 11.1 62 12.4.7 0 1.5.1 2.2.1.8.1 1.6.1 2.4.2h0l3.2.3c.4 0 .8.1 1.1.1 2 .2 4.2.4 6.2.7l2.4.3c.5.1.9.1 1.4.2.8.1 1.6.3 2.4.4 2.9.5 5.9 1.2 8.7 2 3.1.9 6.3 2 9.2 3.3 11.3 5 12.5 12.7 6.7 21.3zM217.6 4.2v12.9C198 15.3 185.1-8.2 156-15c-19-4.4-37.2-2.5-51.5-7.9h92.1c1.1 3.9 2.5 8 4.7 12.4 3.2 6.8 9.9 11.4 16.3 14.7z"/></g><path d="M217.6 82.9v4.4c-5.8-3.3-16.7-8.3-36.5-14.4-36.5-11.2-85.9.1-133.6-21C14.9 37.5 5 18.2-15.6 6.2V-8.2A137.8 137.8 0 0 1 3-.8c22.6 11.3 30.8 31.1 34.4 24.4 2.7-5.2-19.6-34-29.6-46.4h17.4c7.1 12 20.9 34.4 36.7 55.8 23 31.1 50.7 23.6 93.1 30.1 29.4 4.5 51.7 14.2 62.6 19.8z" fill="#1e2530"/><path d="M196.1 131.9h-10.3c-22.6-9.6-72.7-30.1-97.1-32.9C63 96.2 16.3 93.3-15.7 84.2V67.7C8.9 88.4 46.5 88.3 90.9 96.2c50.5 8.9 91.3 28.4 105.2 35.7z" fill="#1c222d"/></g></svg>