<svg xmlns="http://www.w3.org/2000/svg" xmlns:xlink="http://www.w3.org/1999/xlink" viewBox="0 0 200 80" xmlns:v="https://vecta.io/nano"><defs><path id="A" d="M-9.1 0h219.5v80H-9.1z"/></defs><clipPath id="B"><use xlink:href="#A"/></clipPath><g clip-path="url(#B)"><path d="M-19.6-34.4h232.4v154.1H-19.6z" fill="#191f2b"/><g fill="#1c222d"><path d="M212.9 119.7V46.4c-14.4 12.7-21.1 33-58.6 44.8-51.6 16.2-84.9 2.3-117.5 28.6h176.1zm0-119.5v-35.5H-19.6V66.3c19.2-11.4 31.4-29.9 69.9-48 4.1-1.9 8.1-3.5 11.9-4.9 1-.3 2-.7 2.9-1 .5-.2 1-.3 1.5-.4.2-.1.5-.1.7-.2s.5-.1.7-.2c.1 0 .1 0 .2-.1.4-.1.8-.2 1.1-.3.1 0 .2-.1.3-.1.7-.2 1.4-.4 2.1-.5.3-.1.5-.1.8-.2.1 0 .2 0 .2-.1h0c1-.2 2.1-.5 3.1-.7.5-.1.9-.2 1.3-.3s.7-.1 1.1-.2.9-.2 1.3-.2c.2 0 .5-.1.7-.1l2-.3c.4-.1.9-.1 1.3-.2h.1c42.7-4.4 71.1 21.4 129.3-8.1-.1.1 0 0 0 0z"/><path d="M87.9-34.4l-.6-.9H-19.6V6.8C-.8-4.3 21-4.2 42.1-5.5c.7 0 1.5-.1 2.2-.1.8-.1 1.6-.1 2.5-.2h0l3.3-.3c.4 0 .8-.1 1.2-.1 2.1-.2 4.1-.4 6.1-.7l2.4-.3c.5-.1 1-.1 1.4-.2.8-.1 1.6-.3 2.4-.4 2.9-.5 5.8-1.2 8.7-2a77.69 77.69 0 0 0 9.2-3.3c10.9-5 12.2-12.7 6.4-21.3zm125 127.2V80c-19.6 1.8-32.4 25.2-61.4 31.9-18.9 4.4-37.1 2.6-51.3 7.8h91.7c1.1-3.8 2.6-8 4.7-12.4 3.2-6.6 9.8-11.1 16.3-14.5zm0-78.3v-4.4c-5.8 3.3-16.6 8.3-36.4 14.4-36.5 11.1-85.6-.2-133.1 20.8C10.9 59.7.9 78.9-19.6 90.8v14.4c5.7-1.8 12-4.1 18.6-7.4 22.6-11.2 30.7-31 34.2-24.3 2.7 5.2-19.5 33.8-29.5 46.2h17.4c7-11.9 20.8-34.2 36.6-55.6 22.9-31.1 50.5-23.6 92.8-30 29.3-4.4 51.5-14.1 62.4-19.6zm-21.5-48.9h-10.3c-22.6 9.6-72.5 30-96.7 32.7C58.8 1.1 12.3 4-19.6 13v16.5C4.9 9 42.3 9.1 86.6 1.3c50.3-9 91-28.4 104.8-35.7z"/></g></g></svg>