<svg xmlns="http://www.w3.org/2000/svg" viewBox="0 0 90.7 66.6" fill="#fff" xmlns:v="https://vecta.io/nano"><path d="M17.9 24.7c5.3-.7 8.8-.4 11.5-3.9s2-6.3 5.2-8.7c1.8-1.3 19.7-1.2 21.4.1 3.2 2.4 2.4 5.2 5.1 8.8s6.2 3.3 11.5 4.1c5.3.7 12.6.5 15.3-3.2 2.6-3.5 5.3-9.5-2.5-17.1-6.2-6-73.9-6.5-80.2-.5-8 7.5-5.3 13.5-2.7 17.1 2.7 3.6 10 4 15.4 3.3zm63 18.5c-6.8-1.8-10.1 1.7-17.9-5s-4.3-15-10-18c-2.5-1.3-13.4-2.5-17.7-.1-5.6 3.1-2.1 11.3-9.8 18.1s-11.1 3.3-17.9 5.2-1.4 23.3-1.4 23.3l76.3-.1c-.1-.2 5.2-21.6-1.6-23.4zm-37 14.1A10.93 10.93 0 0 1 33 46.4a10.93 10.93 0 0 1 10.9-10.9 10.93 10.93 0 0 1 10.9 10.9c0 6.1-4.9 10.9-10.9 10.9z"/></svg>